<svg xmlns="http://www.w3.org/2000/svg" width="83" height="77" viewBox="0 0 83 77"><g><g><path fill="#fff" d="M82.024 32.186c-1.715 7.22-5.675 13.785-11.45 18.986L41.268 77.148 12.458 51.17c-5.776-5.2-9.736-11.765-11.45-18.984-1.19-5.004-.799-8.073-.704-8.657C1.51 10.328 10.916.75 22.684.75c7.715 0 14.6 4.108 18.603 10.914C45.327 4.943 52.507.75 60.347.75c11.77 0 21.174 9.578 22.381 22.78.094.583.486 3.652-.704 8.655zm-2.437-8.162C78.533 12.308 70.45 3.912 60.35 3.912c-7.63 0-14.54 4.662-17.605 11.874l-1.465 3.45-1.464-3.45C36.7 8.46 30.138 3.91 22.684 3.91 12.58 3.91 4.5 12.306 3.466 23.872l-.024.16c-.001.017-.464 2.693.662 7.429 1.567 6.593 5.193 12.598 10.49 17.367l26.693 24.07 27.16-24.076c5.287-4.76 8.915-10.767 10.48-17.36 1.126-4.736.664-7.413.66-7.438zm-52.385-12.09c0 .875-.71 1.58-1.59 1.58-7.016 0-12.724 5.673-12.724 12.643 0 .874-.71 1.58-1.59 1.58-.88 0-1.59-.706-1.59-1.58 0-8.713 7.134-15.803 15.904-15.803.878 0 1.59.707 1.59 1.58z"/></g></g></svg>