<svg xmlns="http://www.w3.org/2000/svg" width="84" height="83" viewBox="0 0 84 83"><g><g><path fill="#fff" d="M44.806 40.04a1.39 1.39 0 0 1-1.784.808c-6.893-2.585-13.357-2.588-19.76-.012a1.38 1.38 0 1 1-1.036-2.56c7.078-2.847 14.198-2.852 21.77-.013a1.381 1.381 0 0 1 .81 1.777zm38.85 11.285v5.521c.054 8.375-10.351 15.746-24.92 17.788v7.072c0 .762-.618 1.38-1.383 1.38h-9.69c-.437 0-.848-.203-1.109-.551l-3.633-4.833c-6.691 1.232-12.87.919-18.793-.96v4.964c0 .762-.62 1.38-1.385 1.38H10.284a1.384 1.384 0 0 1-1.35-1.068L4.863 64.414c-2.834-3.2-4.27-7.136-4.27-11.707 0-7.16 4.91-13.533 12.501-17.574-.372-1.027-1.485-1.972-3.163-2.665-2.246-.926-4.985-1.17-6.555-.867.072 2.363.441 3.153 1.37 3.153.766 0 1.385.618 1.385 1.38 0 .763-.62 1.382-1.385 1.382-4.153 0-4.153-4.664-4.153-6.905 0-.524.297-1.001.766-1.236 2.115-1.052 6.346-.818 9.632.541 2.32.958 3.893 2.344 4.6 4.016 4.846-2.102 10.556-3.32 16.67-3.32 7.907 0 18.549 1.163 25.222 6.575l10.21-6.366a1.383 1.383 0 1 1 2.066 1.55L67.4 40.606c4.436 1.143 7.797 4.216 10.227 9.338h4.644c.766 0 1.385.619 1.385 1.381zm-2.769 5.524v-4.143h-4.153a1.39 1.39 0 0 1-1.271-.83c-2.336-5.354-5.518-8.165-10.015-8.853a1.38 1.38 0 0 1-1.12-1.745l1.778-6.211-8.02 5a1.387 1.387 0 0 1-1.666-.15c-4.635-4.22-13.216-6.543-24.16-6.543-15.935 0-28.898 8.672-28.898 19.333 0 4.044 1.239 7.351 3.788 10.11.163.177.276.392.33.626l3.906 16.882h9.973v-5.524c0-.453.223-.878.598-1.136a1.38 1.38 0 0 1 1.275-.157c6.245 2.353 12.79 2.784 20.001 1.32a1.383 1.383 0 0 1 1.383.525l3.738 4.972h7.614V73.42c0-.7.525-1.29 1.223-1.37 13.558-1.6 23.746-8.13 23.696-15.192v-.01zm-12.736-7.457a1.383 1.383 0 0 1-1.938.276 1.383 1.383 0 0 1-.283-1.938 1.377 1.377 0 0 1 1.933-.28l.01.008c.613.457.737 1.323.278 1.934zM37.982 17.224c-.155 1.802-1.81 3.162-4.164 3.58v.14c0 .762-.619 1.38-1.384 1.38a1.382 1.382 0 0 1-1.385-1.38v-.06c-1.691-.154-2.687-.637-3.761-1.74a1.38 1.38 0 0 1 .028-1.952 1.387 1.387 0 0 1 1.957.028c.65.667 1.029.962 3.16.962 1.784-.032 2.754-.783 2.79-1.194.027-.307-.684-1.12-2.955-1.573-3.58-.189-5.154-2.205-5.125-4.137.025-1.736 1.374-3.497 3.906-3.996v-.147c0-.763.62-1.381 1.385-1.381s1.384.618 1.384 1.38v.08c1.778.193 3.024.78 3.853 1.825a1.377 1.377 0 0 1-.223 1.94 1.388 1.388 0 0 1-1.945-.223c-.17-.213-.683-.86-3.07-.86-1.72.022-2.513.844-2.522 1.423-.008.613.875 1.269 2.582 1.34.067.004.135.012.202.024 5.184.992 5.358 3.728 5.287 4.54zm8.296-3.185c0 7.615-6.21 13.81-13.844 13.81-7.633 0-13.844-6.195-13.844-13.81C18.59 6.425 24.8.23 32.434.23c7.633 0 13.844 6.195 13.844 13.81zm-2.769 0c0-6.091-4.969-11.047-11.075-11.047-6.107 0-11.075 4.956-11.075 11.047 0 6.092 4.968 11.048 11.075 11.048 6.106 0 11.075-4.956 11.075-11.048z"/></g></g></svg>