<svg xmlns="http://www.w3.org/2000/svg" width="82" height="72" viewBox="0 0 82 72"><g><g><path fill="#fff" d="M81.476 36.845c-.815 12.084-8.467 18.15-19.703 23.542a6.407 6.407 0 0 0-2.918 2.822c-.612 1.19-.516 2.724.253 4.007.604 1.009.62 2.193.058 3.193a3.09 3.09 0 0 1-2.723 1.596H25.106a3.087 3.087 0 0 1-2.723-1.596c-.562-1-.546-2.184.044-3.168.782-1.306.88-2.843.267-4.034a6.415 6.415 0 0 0-2.918-2.82C8.537 54.995.886 48.927.073 36.843a3.327 3.327 0 0 1 .878-2.482 3.26 3.26 0 0 1 2.378-1.04H4.62a3.775 3.775 0 0 1-.759-2.235c0-1.228.597-2.384 1.597-3.093l.485-.344a1.02 1.02 0 0 0 .337-1.26l-.249-.54a3.805 3.805 0 0 1 .156-3.483 3.77 3.77 0 0 1 2.92-1.874l.591-.054c.489-.044.875-.432.919-.923l.054-.595a3.783 3.783 0 0 1 1.865-2.933 3.755 3.755 0 0 1 3.464-.156l.54.251c.14.066.276.078.404.072.16-.42.356-.829.62-1.206l7.92-11.294a5.49 5.49 0 0 1 9.91 2.241 5.505 5.505 0 0 1-.917 4.125l-4.327 6.17a3.695 3.695 0 0 1 1.606 2.73l.053.594c.033.368.259.678.574.828.122-.317.216-.614.235-.827l.054-.595a3.783 3.783 0 0 1 1.867-2.934 3.748 3.748 0 0 1 3.464-.155l.539.251c.442.207.972.062 1.254-.338l.342-.49a3.76 3.76 0 0 1 3.076-1.602c.294 0 .583.039.864.105.12-7.513 6.233-13.59 13.74-13.59 7.507 0 13.62 6.082 13.738 13.597a13.825 13.825 0 0 1 8.26 12.651 13.79 13.79 0 0 1-1.865 6.908h.267c.896 0 1.763.378 2.377 1.04.619.665.94 1.57.88 2.482zm-10.18-20.14a13.775 13.775 0 0 1-.604 2.08l-.068.185c-.11.284-.23.562-.357.837l-.143.298c-.124.25-.252.497-.391.74-.066.115-.137.227-.206.34-.138.224-.275.45-.425.666-.084.122-.176.235-.263.353-.246.333-.504.651-.778.96-.144.163-.286.329-.439.484-.133.136-.273.265-.412.395-.162.151-.323.303-.492.448-.142.122-.288.236-.435.353a15.11 15.11 0 0 1-.994.718 13.61 13.61 0 0 1-.623.381c-.143.084-.286.17-.433.25-.263.14-.534.267-.806.39-.102.047-.2.1-.305.144-.375.158-.76.298-1.151.423-.124.04-.25.07-.375.106-.28.08-.561.157-.847.22-.156.034-.314.06-.47.089a14.311 14.311 0 0 1-1.299.174c-.108.008-.214.026-.324.033l.316.225a3.784 3.784 0 0 1 1.595 3.09c0 .273-.04.54-.096.802a3.841 3.841 0 0 1-.324.936l-.014.02a3.71 3.71 0 0 1-.295.478h4.856v-5.526c0-.764.614-1.382 1.375-1.382.76 0 1.375.618 1.375 1.382v5.526h7.194a11.043 11.043 0 0 0 2.431-6.908c0-4.09-2.262-7.802-5.774-9.71zm-24.478-2.723c0 .669.067 1.36.2 2.059.133.073.277.113.421.123l.024.001a.94.94 0 0 0 .43-.083l.536-.25c.266-.123.54-.208.821-.266.096-.02.194-.02.292-.032.157-.021.312-.051.47-.051.026 0 .052.01.078.01.21.005.413.042.62.082.102.02.205.022.307.051.303.085.598.202.876.364.415.241.756.573 1.047.942l1.962-1.971a1.369 1.369 0 0 1 1.944 0c.538.54.538 1.413 0 1.953l-2.938 2.95c.15.319.459.544.823.577l.593.054c1.217.11 2.309.81 2.92 1.874.14.24.24.496.32.756.026.076.04.153.06.23.047.194.08.389.096.588.007.081.017.16.018.241.006.253-.01.506-.055.756-.003.018-.003.034-.005.053v.001c.035-.002.071-.002.106-.005.178-.017.354-.043.532-.068.173-.025.348-.046.52-.077.166-.032.328-.074.492-.112.177-.042.356-.08.53-.131.152-.045.299-.097.449-.148.178-.06.357-.12.532-.188.139-.054.274-.118.41-.179.177-.078.356-.157.53-.245.123-.064.244-.134.365-.202.177-.1.355-.198.527-.307.11-.069.214-.144.32-.217.176-.12.35-.243.52-.373.092-.07.18-.146.27-.22.174-.146.347-.29.512-.446.074-.07.145-.142.216-.214.173-.17.344-.344.505-.526.055-.062.107-.127.16-.19.171-.2.337-.405.493-.618l.106-.152c.166-.234.326-.474.473-.722l.056-.1c.158-.271.307-.547.441-.833l.017-.037a11.022 11.022 0 0 0 1.024-4.069c0-.005.004-.014.004-.014.013-.206.03-.41.03-.619 0-6.093-4.934-11.051-11-11.051-6.067 0-11 4.958-11 11.051zm-11.765 7.119c.062.04.106.103.165.146.198.148.388.307.554.494.08.09.143.19.214.287.087.116.186.22.259.345.038.07.056.145.09.216.027.051.068.091.091.145.039.09.055.185.089.276.038.11.076.219.105.332.044.174.068.35.087.529.01.103.027.206.03.31.004.199-.016.396-.044.595-.01.084-.01.169-.029.253-.057.281-.141.56-.264.824l-.251.543c-.205.445-.065.974.335 1.258l.487.345c.397.282.71.648.968 1.047.228.353.42.731.52 1.143.031.124.029.255.047.382.023.173.061.341.061.519v.002c-.001.272-.04.539-.097.8a3.831 3.831 0 0 1-.325.934l-.012.019a3.885 3.885 0 0 1-.296.48H55.9c.026-.042.062-.076.09-.116.07-.107.152-.206.234-.304.057-.067.109-.137.17-.2.152-.157.316-.302.494-.43l.013-.012.49-.345c.272-.193.428-.496.428-.832 0-.336-.156-.64-.429-.835l-.488-.347a3.458 3.458 0 0 1-.455-.387c-.074-.072-.139-.152-.206-.229-.053-.062-.106-.122-.154-.187a3.732 3.732 0 0 1-.242-.363l-.025-.043a3.787 3.787 0 0 1-.193-3.394c.01-.025.014-.047.025-.072l.253-.547c.14-.302.125-.645-.042-.935a.997.997 0 0 0-.788-.506l-.592-.054a3.772 3.772 0 0 1-3.41-3.426l-.053-.593a1.005 1.005 0 0 0-.502-.791.998.998 0 0 0-.933-.042l-.537.252a3.61 3.61 0 0 1-.583.21c-.112.03-.223.046-.336.066-.078.014-.155.032-.234.04-.166.02-.334.022-.5.02h-.04a3.747 3.747 0 0 1-2.966-1.588l-.342-.489c-.384-.546-1.272-.55-1.659.001l-.342.49a3.757 3.757 0 0 1-4.656 1.254l-.542-.253a.991.991 0 0 0-.932.041c-.29.168-.474.456-.503.79l-.054.596a5.874 5.874 0 0 1-.305 1.336zm-15.24-4.559a2.74 2.74 0 0 0-.437 1.018c-.05.24-.057.479-.044.713.004.06.007.119.013.178.028.235.075.466.159.684.005.014.013.025.019.039.084.206.196.398.327.579.036.048.072.097.11.142.15.18.315.35.512.49.002 0 .004.003.007.005a2.735 2.735 0 0 0 2.052.46 2.722 2.722 0 0 0 1.779-1.127l2.556-3.644.001-.001 5.364-7.648c.42-.598.582-1.332.457-2.062a2.744 2.744 0 0 0-4.953-1.12zM8.53 33.322h25.367c.013-.02.034-.04.05-.062.089-.135.189-.259.293-.38.046-.053.086-.111.135-.162.16-.166.333-.32.521-.455l.47-.331.018-.013c.098-.068.161-.164.227-.257.028-.04.072-.064.093-.106.074-.142.112-.3.112-.47 0-.336-.157-.638-.432-.838l-.152-.108-.334-.236a3.764 3.764 0 0 1-1.576-2.72c0-.01-.003-.018-.004-.027-.06-.645.045-1.31.333-1.934l.251-.543c.068-.146.096-.304.091-.458l.001-.02a1.018 1.018 0 0 0-.12-.407c-.027-.053-.067-.096-.102-.144a.982.982 0 0 0-.192-.201c-.048-.038-.101-.062-.155-.09a1.006 1.006 0 0 0-.352-.12l-.591-.053a3.773 3.773 0 0 1-3.41-3.426l-.054-.593a.975.975 0 0 0-.437-.742l-2.023 2.885a5.467 5.467 0 0 1-3.557 2.257 5.585 5.585 0 0 1-.956.083c-.023 0-.045-.005-.069-.005-.09-.002-.176-.016-.265-.02a5.478 5.478 0 0 1-.706-.088 5.391 5.391 0 0 1-.973-.29c-.096-.037-.191-.072-.285-.115a5.541 5.541 0 0 1-.853-.487 5.497 5.497 0 0 1-.84-.736c-.075-.08-.13-.172-.2-.256a5.43 5.43 0 0 1-.465-.618c-.077-.124-.128-.258-.194-.388-.097-.193-.202-.383-.277-.587-.064-.174-.1-.355-.146-.534-.04-.153-.098-.298-.125-.456-.005-.023-.002-.048-.006-.073-.005-.028-.018-.057-.022-.086a3.583 3.583 0 0 1-1.233-.323l-.542-.252a1 1 0 0 0-.932.041 1.006 1.006 0 0 0-.502.79l-.054.596a3.77 3.77 0 0 1-3.412 3.424l-.59.054c-.333.03-.62.215-.787.505a1.012 1.012 0 0 0-.041.939l.248.539a3.791 3.791 0 0 1-1.25 4.683l-.484.343a1.01 1.01 0 0 0-.43.834c0 .337.157.64.43.833l.487.344c.4.283.74.646 1.003 1.06zm70.2 3.336a.543.543 0 0 0-.142-.41.496.496 0 0 0-.369-.162H3.33a.49.49 0 0 0-.368.162.551.551 0 0 0-.145.41c.726 10.782 7.48 16.12 18.144 21.233a9.176 9.176 0 0 1 4.175 4.046c1.049 2.037.918 4.605-.34 6.704-.109.182-.069.32-.019.407a.36.36 0 0 0 .329.194H56.44a.36.36 0 0 0 .328-.194.36.36 0 0 0-.004-.382c-1.272-2.122-1.403-4.69-.353-6.727a9.188 9.188 0 0 1 4.176-4.046C71.25 52.777 78.004 47.44 78.73 36.658zM52.318 60.953c0 .764-.616 1.381-1.375 1.381H38.97a1.378 1.378 0 0 1-1.375-1.381c0-.764.616-1.381 1.375-1.381h11.973c.759 0 1.375.617 1.375 1.38zm-23.376 0c0-.764.616-1.381 1.375-1.381h4.656c.76 0 1.375.617 1.375 1.38 0 .765-.616 1.382-1.375 1.382h-4.656c-.76 0-1.375-.617-1.375-1.381zm23.376 4.144c0 .764-.616 1.382-1.375 1.382H30.317c-.76 0-1.375-.618-1.375-1.382 0-.764.616-1.381 1.375-1.381h20.626c.759 0 1.375.617 1.375 1.381zM51.012 9.099a1.385 1.385 0 0 1 0-1.954 1.37 1.37 0 0 1 1.944 0l3.89 3.907a1.384 1.384 0 0 1-.972 2.359c-.352 0-.704-.136-.972-.405zm7.777 7.814a1.385 1.385 0 0 1 0-1.954 1.369 1.369 0 0 1 1.944 0l3.89 3.907c.537.54.538 1.413 0 1.953a1.368 1.368 0 0 1-1.944 0zm.001-3.907a1.384 1.384 0 0 1 0-1.954l3.89-3.907a1.37 1.37 0 0 1 1.945 0c.537.54.536 1.413 0 1.954l-3.89 3.907a1.368 1.368 0 0 1-1.945 0zM68.82 23.653h5.5c.76 0 1.375.617 1.375 1.38 0 .765-.615 1.382-1.375 1.382h-5.5c-.76 0-1.375-.617-1.375-1.381s.614-1.381 1.375-1.381zM41.033 25.32a1.384 1.384 0 0 1 0-1.953l2.063-2.072a1.369 1.369 0 0 1 1.944 0c.538.54.538 1.413 0 1.953l-2.063 2.072a1.368 1.368 0 0 1-1.944 0zm6.188 2.072a1.385 1.385 0 0 1 0-1.953 1.37 1.37 0 0 1 1.944 0l1.375 1.381c.538.54.538 1.414 0 1.954a1.368 1.368 0 0 1-1.944 0zm-2.181.81c.538.54.538 1.413 0 1.953l-1.375 1.382a1.368 1.368 0 0 1-1.944 0 1.384 1.384 0 0 1 0-1.953l1.375-1.382a1.369 1.369 0 0 1 1.944 0z"/></g></g></svg>