<svg xmlns="http://www.w3.org/2000/svg" width="113" height="77" viewBox="0 0 113 77"><g><g><path fill="#fff" d="M81.323 21.309c3.842 5.04 5.872 11.063 5.872 17.419 0 15.836-12.853 28.72-28.652 28.72-15.8 0-28.653-12.884-28.653-28.72 0-15.836 12.854-28.72 28.653-28.72 6.34 0 12.35 2.036 17.379 5.887.786.602.936 1.728.336 2.516-.6.788-1.725.939-2.51.337-4.4-3.37-9.657-5.15-15.205-5.15-13.824 0-25.071 11.273-25.071 25.13 0 13.856 11.247 25.129 25.07 25.129 13.825 0 25.072-11.273 25.072-25.13 0-5.56-1.776-10.83-5.137-15.239-.6-.788-.45-1.914.336-2.516a1.787 1.787 0 0 1 2.51.337zm15.423 17.419c0 21.114-17.137 38.292-38.203 38.292-21.066 0-38.204-17.178-38.204-38.292C20.34 17.613 37.477.436 58.543.436s38.203 17.177 38.203 38.292zm-3.581 0c0-19.136-15.532-34.703-34.622-34.703S23.92 19.592 23.92 38.728c0 19.135 15.531 34.702 34.622 34.702 19.09 0 34.622-15.567 34.622-34.702zM18.548 2.23V23.77a8.985 8.985 0 0 1-7.163 8.794v42.661c0 .991-.802 1.795-1.79 1.795-.99 0-1.791-.804-1.791-1.795V32.564A8.985 8.985 0 0 1 .64 23.77V2.23c0-.991.802-1.795 1.791-1.795.99 0 1.791.804 1.791 1.796v14.957h3.582V2.231c0-.992.801-1.796 1.79-1.796.99 0 1.791.804 1.791 1.796v14.957h3.582V2.231c0-.992.802-1.796 1.79-1.796.99 0 1.791.804 1.791 1.796zM14.967 23.77v-2.992H4.222v2.992c0 2.969 2.41 5.385 5.372 5.385 2.963 0 5.373-2.416 5.373-5.385zm97.897-21.54v72.995c0 .991-.802 1.795-1.791 1.795-.99 0-1.791-.804-1.791-1.795V44.113h-5.372c-.99 0-1.791-.804-1.791-1.795V9.41c0-4.949 4.016-8.974 8.954-8.974.989 0 1.79.803 1.79 1.795zm-3.582 2.103A5.394 5.394 0 0 0 105.7 9.41v31.113h3.582z"/></g></g></svg>