<svg xmlns="http://www.w3.org/2000/svg" width="76" height="76" viewBox="0 0 76 76"><g><g><path fill="#fff" d="M67.654 53.148c.568.395.707 1.175.313 1.742l-7.774 11.17a1.253 1.253 0 0 1-1.82.252l-5.988-4.915a1.248 1.248 0 0 1-.174-1.76 1.252 1.252 0 0 1 1.76-.173l4.94 4.055 7.002-10.06a1.246 1.246 0 0 1 1.741-.31zM43.17 37.758a5.01 5.01 0 0 1-5.004 5.004c-2.269 0-4.168-1.527-4.779-3.602h-8.982a1.25 1.25 0 1 1 0-2.502h8.887a5.001 5.001 0 0 1 3.623-3.727V20.242a1.251 1.251 0 1 1 2.502 0v12.689c2.152.56 3.753 2.501 3.753 4.827zm-2.502 0a2.504 2.504 0 0 0-2.502-2.502 2.505 2.505 0 0 0-2.502 2.502 2.505 2.505 0 0 0 2.502 2.502 2.505 2.505 0 0 0 2.502-2.502zm-3.753-26.274v-1.251a1.25 1.25 0 1 1 2.502 0v1.251a1.25 1.25 0 1 1-2.502 0zm2.502 52.548v1.25a1.25 1.25 0 1 1-2.502 0v-1.25a1.25 1.25 0 1 1 2.502 0zm23.77-26.274c0-.692.56-1.251 1.25-1.251h1.252a1.25 1.25 0 1 1 0 2.502h-1.251a1.25 1.25 0 0 1-1.251-1.251zm-50.04 0a1.25 1.25 0 0 1-1.252 1.251h-1.25a1.25 1.25 0 1 1 0-2.502h1.25c.69 0 1.251.559 1.251 1.25zm42.711-17.695a1.25 1.25 0 0 1 0-1.769l.885-.884a1.25 1.25 0 1 1 1.769 1.768l-.885.885a1.246 1.246 0 0 1-1.769 0zM20.475 55.45c.489.49.489 1.28 0 1.77l-.885.884a1.246 1.246 0 0 1-1.769 0 1.25 1.25 0 0 1 0-1.769l.885-.885a1.25 1.25 0 0 1 1.769 0zm0-37.157a1.25 1.25 0 0 1-.885 2.136c-.32 0-.64-.123-.884-.367l-.885-.885a1.25 1.25 0 0 1 0-1.768 1.25 1.25 0 0 1 1.77 0zm52.907 32.565a16.138 16.138 0 0 1 2.315 8.32c0 8.968-7.296 16.264-16.263 16.264-3.043 0-5.881-.856-8.32-2.315a37.332 37.332 0 0 1-12.948 2.315c-20.694 0-37.53-16.837-37.53-37.534C.636 17.213 17.472.375 38.166.375c20.695 0 37.53 16.838 37.53 37.534 0 4.442-.784 8.793-2.314 12.95zM48.325 71.022a17.05 17.05 0 0 1-.63-.621 16.877 16.877 0 0 1-1.576-1.916c-.141-.2-.273-.406-.404-.613-.16-.25-.319-.504-.465-.764-.123-.22-.234-.445-.347-.672-.13-.257-.261-.515-.376-.779-.112-.254-.206-.516-.303-.776-.093-.249-.193-.494-.274-.748-.098-.302-.173-.612-.252-.92-.057-.226-.126-.447-.173-.674-.078-.368-.13-.746-.182-1.122-.025-.178-.062-.353-.081-.533-.06-.56-.092-1.13-.092-1.706 0-8.968 7.296-16.264 16.264-16.264.576 0 1.144.032 1.703.091.178.019.352.055.528.08.38.053.758.104 1.129.183.225.047.443.115.665.171.312.08.626.157.93.254.25.08.493.18.74.272.263.098.528.193.785.306.261.114.515.244.77.372.23.114.458.226.68.351.259.144.508.302.757.46.211.133.42.267.624.41a18.407 18.407 0 0 1 1.306 1.022 15.91 15.91 0 0 1 1.232 1.187c.1.108.212.205.31.314a34.866 34.866 0 0 0 1.602-10.478c0-19.316-15.714-35.031-35.029-35.031-19.314 0-35.028 15.715-35.028 35.031s15.714 35.032 35.028 35.032c3.576 0 7.09-.54 10.478-1.603-.114-.1-.212-.214-.32-.316zm24.87-11.844c0-2.785-.837-5.375-2.266-7.543-.3-.456-.624-.89-.97-1.303-.064-.075-.135-.144-.2-.22-.274-.31-.559-.608-.857-.893a16.912 16.912 0 0 0-.402-.365c-.256-.226-.52-.44-.792-.644-.148-.113-.292-.228-.444-.333a13.714 13.714 0 0 0-2.658-1.441c-.16-.067-.327-.122-.492-.182a14.072 14.072 0 0 0-1.533-.459 13.39 13.39 0 0 0-1.078-.205c-.16-.025-.318-.055-.48-.074-.524-.061-1.054-.1-1.59-.1-7.587 0-13.76 6.175-13.76 13.762 0 .536.038 1.066.098 1.59.019.162.05.321.074.48a13.525 13.525 0 0 0 .342 1.611c.093.338.203.672.322 1.001.06.164.115.33.18.492.168.414.357.818.565 1.212l.166.308c.218.39.456.77.712 1.139.105.151.22.295.331.443a14.604 14.604 0 0 0 1.01 1.195c.284.297.582.583.893.857.074.064.144.134.22.198.413.347.847.672 1.305.973a13.671 13.671 0 0 0 7.543 2.264c7.587 0 13.76-6.174 13.76-13.763z"/></g></g></svg>