<svg xmlns="http://www.w3.org/2000/svg" width="30" height="30" viewBox="0 0 30 30"><g><g><path fill="#fff" d="M23 15a.5.5 0 0 1-.218.412l-11 7.501A.502.502 0 0 1 11 22.5V7.499a.5.5 0 0 1 .781-.413l11.001 7.5a.5.5 0 0 1 .219.414zm-1.387 0L12 8.444v13.108zm8.388 0c0 8.27-6.73 15-15.001 15C6.728 30-.001 23.27-.001 15c0-8.272 6.73-15.002 15-15.002 8.273 0 15.002 6.73 15.002 15.002zm-1 0C29.001 7.28 22.72.997 15 .997S.999 7.28.999 15c0 7.72 6.28 14 14 14 7.721 0 14.002-6.28 14.002-14z"/></g></g></svg>