<svg xmlns="http://www.w3.org/2000/svg" width="40" height="40" viewBox="0 0 40 40"><defs><clipPath id="wj4ea"><path fill="#fff" d="M6 0h28a6 6 0 0 1 6 6v28a6 6 0 0 1-6 6H6a6 6 0 0 1-6-6V6a6 6 0 0 1 6-6z"/></clipPath></defs><g><g><path fill="#fff" d="M6 0h28a6 6 0 0 1 6 6v28a6 6 0 0 1-6 6H6a6 6 0 0 1-6-6V6a6 6 0 0 1 6-6z"/><path fill="none" stroke="#e5e4d7" stroke-linecap="round" stroke-linejoin="round" stroke-miterlimit="20" stroke-width="4" d="M6 0h28a6 6 0 0 1 6 6v28a6 6 0 0 1-6 6H6a6 6 0 0 1-6-6V6a6 6 0 0 1 6-6z" clip-path="url(&quot;#wj4ea&quot;)"/></g></g></svg>